<svg width="420" height="290" viewBox="0 0 420 290" fill="none" xmlns="http://www.w3.org/2000/svg">
<path d="M72.571 203.16C51.2701 203.16 34.0027 185.883 34.0027 164.572C34.0027 152.855 39.3232 141.773 48.4658 134.45L159.009 45.9011C173.475 34.3131 191.453 28.0001 209.984 28.0001C242.116 28.0001 268.164 54.0604 268.164 86.2083L268.164 86.3593L189.307 86.3593C168.367 86.3593 151.392 103.343 151.392 124.293L151.392 203.16L72.571 203.16Z" fill="#20564E"/>
<path d="M346.675 86.0806C367.976 86.0807 385.243 103.358 385.243 124.668C385.243 136.385 379.923 147.468 370.78 154.791L260.237 243.34C245.771 254.928 227.793 261.241 209.262 261.241C177.13 261.241 151.082 235.18 151.082 203.032V202.881H229.939C250.879 202.881 267.854 185.898 267.854 164.948V86.0806H346.675Z" fill="#10DD8B"/>
</svg>
